<?xml version="1.0" standalone="no"?>
<!DOCTYPE svg PUBLIC "-//W3C//DTD SVG 20010904//EN"
 "http://www.w3.org/TR/2001/REC-SVG-20010904/DTD/svg10.dtd">
<svg version="1.0" xmlns="http://www.w3.org/2000/svg"
 width="84.000000pt" height="80.000000pt" viewBox="0 0 84.000000 80.000000"
 preserveAspectRatio="xMidYMid meet">

<g transform="translate(0.000000,80.000000) scale(0.100000,-0.100000)"
fill="#000000" stroke="none">
<path d="M0 400 c0 -397 0 -400 21 -400 11 0 18 3 16 8 -3 4 6 7 19 7 13 0 24
-3 24 -7 0 -5 171 -8 380 -8 l380 0 0 400 0 400 -420 0 -420 0 0 -400z m513
310 c83 -26 155 -88 194 -168 24 -49 28 -69 28 -142 0 -73 -4 -93 -28 -141
-121 -247 -456 -251 -588 -7 -31 58 -34 70 -33 148 0 65 5 96 21 131 52 116
173 194 304 198 20 1 66 -8 102 -19z"/>
<path d="M361 649 c-136 -27 -230 -164 -201 -294 14 -65 52 -128 93 -156 l32
-22 -31 34 c-92 99 -97 240 -13 342 32 39 114 87 149 87 11 0 20 5 20 10 0 6
-1 10 -2 9 -2 -1 -23 -5 -47 -10z"/>
<path d="M520 586 c0 -2 8 -10 18 -17 15 -13 16 -12 3 4 -13 16 -21 21 -21 13z"/>
<path d="M570 541 c0 -5 5 -22 10 -36 6 -15 7 -32 3 -38 -11 -17 -33 -81 -29
-84 2 -2 9 11 15 29 7 18 16 40 20 48 10 19 2 90 -10 90 -5 0 -9 -4 -9 -9z"/>
<path d="M475 359 c-4 -6 -5 -12 -2 -15 2 -3 7 2 10 11 7 17 1 20 -8 4z"/>
<path d="M411 319 c-1 -15 7 -35 17 -46 9 -10 14 -14 10 -8 -3 5 -11 26 -16
45 -9 31 -10 32 -11 9z"/>
<path d="M540 320 c0 -5 5 -10 11 -10 5 0 7 5 4 10 -3 6 -8 10 -11 10 -2 0 -4
-4 -4 -10z"/>
<path d="M536 227 c3 -10 9 -15 12 -12 3 3 0 11 -7 18 -10 9 -11 8 -5 -6z"/>
</g>
</svg>
